<?xml version="1.0" encoding="UTF-8"?><svg id="a" xmlns="http://www.w3.org/2000/svg" viewBox="0 0 62.33 100"><path id="b" d="M32,66.39c-.91.86-1.63,1.97-2.23,3.17-.35.7-.77,1.37-1.1,2.07-.34.71-.66,1.43-.91,2.17-.27.82-.49,1.66-.66,2.5-.07.39,0,.83.09,1.23.47,2.3.72,4.62.8,6.96.06,1.53.16,3.05.25,4.62.68-1.41,1.27-2.82,2-4.16,1.12-2.06,2.41-4.04,4.27-5.5.98-.77,2.04-1.56,3.35-1.78.18-.03.35-.13.51-.23.92-.59,1.92-.68,2.97-.56.23.03.48-.01.79-.02-.56.58-1.05,1.13-1.59,1.63-1.43,1.34-2.53,2.92-3.41,4.65-.75,1.47-1.42,2.98-2.11,4.48-.29.63-.54,1.27-.82,1.9-.67,1.52-1.77,2.66-3.27,3.37-.39.18-.9.09-1.36.14-.49.05-.99.11-1.49.17-.07,1.19-.17,2.29-.2,3.4-.03,1.07-.44,2-.96,2.9-.09.16-.18.32-.27.48-.1-.08-.2-.15-.29-.23.02-.32-.01-.66.08-.96.52-1.76.63-3.57.71-5.39.05-1.14.16-2.28.22-3.42.01-.26-.04-.52-.06-.77-.8-.44-1.56-.92-2.37-1.28-1.22-.54-2.48-.96-3.71-1.49-2.57-1.12-4.36-3.03-5.64-5.51-.73-1.41-1.42-2.87-2.71-3.91-.69-.56-1.36-1.13-2.29-1.21-.29-.02-.6.04-.87.14-.52.17-.82.07-1-.38-.15-.38.05-.78.53-.91.46-.12.94-.21,1.42-.25,2.02-.17,3.98.19,5.81.99,1.88.81,3.59,1.94,5.15,3.28.79.67,1.6,1.31,2.35,2.02.46.43.85.94,1.23,1.45.61.8,1.18,1.62,1.82,2.5-.12-1.19-.22-2.35-.34-3.51-.11-1.06-.27-2.11-.36-3.17-.15-1.77-.84-3.39-1.44-5.03-.27-.74-.68-1.43-1.06-2.12-.9-1.67-2.19-2.94-3.85-3.86-.8-.44-1.59-.89-2.38-1.35-.4-.23-.7-.11-1.01.18-1.67,1.55-3.61,2.49-5.9,2.6-1.01.05-1.97-.14-2.87-.63-.44-.24-.92-.44-1.4-.59-.86-.25-1.48-.8-1.91-1.53-.47-.79-1.13-1.54-.93-2.58.13-.7.39-1.33.9-1.85,1.29-1.32,2.05-2.87,2.17-4.74.07-1.09.17-2.2.46-3.24.27-.98,1.07-1.59,2.04-1.92.16-.05.37,0,.55.03.78.15,1.57.3,2.34.49.85.21,1.59-.23,2.36-.43,1-.25,1.9-.53,2.83.29.8.7,1.43,1.42,1.57,2.5.08.65.21,1.3.28,1.96.2,1.81-.14,3.56-.6,5.29-.27,1.04-.55,2.08-.84,3.18,4.33,1.61,7.37,4.57,8.6,9.27.08-.02.16-.05.24-.07.08-.38.19-.76.23-1.14.13-1.45.38-2.9.32-4.34-.08-1.74-.37-3.47-.68-5.18-.34-1.84-.77-3.66-1.23-5.47-.33-1.31-.75-2.6-1.2-3.88-.11-.31-.49-.56-.79-.76-.64-.41-1.3-.82-1.99-1.14-1.47-.7-2.98-1.33-4.44-2.04-1.53-.75-3.12-1.47-4.18-2.88-.76-1-1.34-2.13-1.71-3.35-.24-.79-.59-1.54-.91-2.3-.16-.37-.04-.89.32-1.02.39-.14.62.11.79.43.1.19.22.39.37.54,1.35,1.38,3.09,2.16,4.76,3.07,2,1.09,3.94,2.32,5.4,4.15.85,1.06,1.71,2.11,2.58,3.18.07-.37.11-.82.25-1.23.45-1.31.92-2.61,1.41-3.9.12-.32.11-.49-.25-.58-.96-.22-1.92-.47-2.88-.7-2.1-.49-4.05-1.27-5.54-2.91-.33-.36-.73-.66-1.05-1.03-.59-.7-1.11-1.46-1.72-2.13-1.06-1.16-1.05-2.66-1.33-4.06-.08-.39.07-.88.26-1.25,1.3-2.5,3.44-4.12,6.55-3.34.33.08.62.32.98.52.23-.34.47-.77.79-1.12,1.09-1.17,2.34-1.95,4.06-1.64.84.15,1.69.21,2.63.33,0-.16.05-.36.01-.53-.26-1.19-.99-2.09-1.87-2.87-1.58-1.39-3.44-2.24-5.47-2.67-1.85-.39-3.63.09-5.36.72-.3.11-.6.21-.87.38-.38.25-.77.52-1.08.85-.26.27-.49.35-.76.11-.24-.22-.45-.49-.14-.82.46-.5.89-1.04,1.39-1.48,1.16-1.01,2.3-2.06,3.57-2.91.63-.42,1.52-.5,2.31-.63,1.74-.3,3.13.63,4.57,1.37,1.41.72,2.37,1.94,3.34,3.13.42.52.73,1.13,1.09,1.7.1-.06.19-.13.29-.19-.29-3-.99-5.86-2.78-8.32-2.09.41-4.1.84-6.13,1.18-.97.16-2,.34-2.96.19-1.71-.28-3.49-.45-5.01-1.37-.69-.42-1.21-1.14-1.79-1.74-.17-.17-.26-.42-.42-.61-.9-1.11-.89-2.47-.46-3.6.4-1.07,1.23-2.09,2.54-2.4.67-.16,1.34-.33,2-.49-.21-.98-.6-1.96-.61-2.95-.03-2.04.49-3.29,2.25-4.11,1.83-.86,3.63-.74,5.49.08,1.25.55,2.25,1.3,2.99,2.45.36-.45.68-.88,1.03-1.29.48-.57,1.07-.79,1.84-.72,1.26.11,2.39.51,3.38,1.29.24.19.48.45.6.73.82,1.97,1.34,3.98.76,6.15-.31,1.15-.49,2.35-1.29,3.27-.75.86-1.61,1.63-2.43,2.42-.32.31-.67.6-.96.86.22.43.39.82.61,1.17,1.54,2.38,2.14,5.02,2.3,7.81.09,1.56,0,3.06-.6,4.53-.08.21.25.58.45,1,.35-.59.63-1.04.88-1.5,1.03-1.98,2.53-3.56,4.27-4.92,1.6-1.25,3.33-2.25,5.4-2.53.52-.07.84-.24.87-.9.05-1.2.44-2.28,1.3-3.2.71-.76,1.23-1.7,1.91-2.5.48-.56,1.1-1.01,1.66-1.51.33-.3.62-.67,1-.9,1.17-.72,3.69-.62,4.61,1,.14.24.22.52.4.73.1.13.33.22.5.22.79-.04,1.58-.05,2.35-.2,1.29-.24,3.1,1.45,3.44,2.62.35,1.21-.08,2.23-.64,3.21-.66,1.15-1.6,2.02-2.82,2.58-.11.05-.18.35-.15.51.08.38.22.76.37,1.12.31.76.02,1.38-.41,1.97-.28.38-.57.76-.89,1.1-.78.85-1.85.89-2.9.93-.5.02-1.01-.01-1.52-.06-.88-.08-1.74-.22-2.54-.65-.87-.47-1.87-.76-2.63-1.35-.95-.74-1.75-1.69-2.56-2.59-.18-.2-.16-.59-.22-.89-.09-.45-.38-.52-.76-.41-.94.27-1.91.47-2.81.85-.74.32-1.39.85-2.14,1.32.19.07.32.16.45.17,1.8.1,3.28,1.02,4.85,1.75,1.25.58,2.28,1.41,3.23,2.37.41.42.73.94,1.05,1.44.62.99,1.2,2.01,1.82,3.01.21.33.53.6.71.94.1.18.02.47.03.7-.3-.06-.68.41-.89-.08-.31-.7-.87-.91-1.55-.9-1.04.02-1.87-.47-2.75-.92-1.84-.94-3.02-2.57-4.3-4.08-.93-1.09-1.93-2.1-3.19-2.82-.49-.28-1.24-.18-1.61.23-1.06,1.2-1.88,2.55-2.63,3.97-.47.88-.36,1.63.14,2.42.62-.29,1.26-.61,1.91-.87.8-.33,2.04.13,2.55.83,1.35,1.86,1.46,3.89.67,5.94-.49,1.27-1.16,2.47-2.32,3.33-1.09.81-2.07,1.8-3.22,2.52-.96.6-2.07.96-3.15,1.34-.6.21-1.01.47-1.22,1.11-.24.74-.56,1.46-.88,2.18-.63,1.38-.76,2.82-.47,4.29.4,2.04.83,4.07,1.26,6.11.09.44.24.86.4,1.33.38-2.38,1.13-4.66,2.12-6.87,1.01-2.26,2.51-4.13,4.14-5.97,1.19-1.34,4.82-4.33,5.69-4.2.06.52-.27.87-.63,1.11-1.12.74-1.61,1.97-2.35,3-.79,1.11-.87,2.47-1.25,3.72-.41,1.35-.73,2.74-1.2,4.06-.63,1.78-1.4,3.5-2.53,5.06-.71.99-1.54,1.77-2.56,2.38-.27.16-.57.26-.91.41.44,2.46.85,4.96.5,7.54.67-1.14,1.34-2.29,2.02-3.42.21-.35.45-.69.74-.98,1.45-1.43,2.85-2.91,4.4-4.23.93-.79,2.07-1.35,3.33-1.52.1-.02.2-.08.2-.08-.19-1.27-.5-2.49-.53-3.71-.04-1.38.02-2.8.32-4.14.53-2.38,1.81-4.43,3.71-5.95,1.67-1.34,3.66-1.84,5.8-1.14,1.07.35,1.97,1.89,2,3.29,0,.11,0,.23,0,.34,0,.93,0,.89.91.96.92.07,1.75.44,2.43,1.06,1.17,1.06,1.86,2.34,1.55,3.95-.11.56-.44,1.13-.8,1.58-.62.79-1.35,1.5-2.08,2.3.82,1.25,1.63,2.62.95,4.35-.62,1.6-1.77,2.52-3.52,2.86.18.24.32.47.51.66.98.98,1.61,2.19,2.1,3.45.18.47.07,1.06.06,1.59,0,.08-.17.16-.37.35-.25-.53-.42-1.02-.7-1.44-.24-.36-.57-.71-.94-.92-1.7-.97-3.51-1.62-5.46-1.82-.95-.1-1.91-.29-2.86-.26-.9.02-1.8.3-2.71.4-.72.08-1.45.08-2.17.07-.48,0-.97-.06-1.44-.19-.63-.17-1.27-.36-1.82-.68-.56-.33-1.01-.83-1.56-1.3h0ZM27.2,87.9c-.28-.72-.45-1.32-.74-1.85-.53-.99-1.01-2.03-1.72-2.87-1.02-1.21-2.17-2.34-3.38-3.37-1.81-1.55-3.67-3.08-6.05-3.71-.89-.24-1.79-.46-2.72-.7.01.19,0,.24.02.26.07.06.15.12.22.18.7.59,1.5,1.05,1.96,1.91.5.94,1.09,1.83,1.63,2.75.31.53.57,1.1.93,1.6,1.32,1.82,3.13,3,5.17,3.85,1.23.51,2.47.99,3.71,1.5.29.12.56.27.99.48h0ZM39.56,77.93c-1.71.66-3.48,1.25-4.88,2.52-1.19,1.08-2.17,2.35-3,3.73-1.1,1.82-2.13,3.67-2.7,5.74-.21.77-.44,1.53-.71,2.46.76-.17,1.37-.39,1.99-.41,1.24-.04,1.99-.81,2.5-1.75.85-1.56,1.65-3.17,2.29-4.83.66-1.72,1.54-3.3,2.6-4.79.63-.89,1.27-1.78,1.9-2.66ZM26.79,44.63c-.5-1.58-1.45-2.58-2.55-3.45-1.54-1.22-3.36-2.09-4.64-3.63-1.02-1.22-2.02-2.48-2.99-3.74-.4-.51-.71-1.09-1.09-1.69-.32.41-.95.64-.57,1.25,1.08,1.7,2.06,3.48,3.34,5.02,1.28,1.56,2.82,2.92,4.63,3.9.18.1.28.31.42.48-.04.04-.09.08-.13.11-4.22-1.9-6.55-5.59-8.84-9.37-.06.2-.11.42-.06.61.14.48.32.96.49,1.44.77,2.1,2.35,3.61,3.84,5.17.26.27.6.46.92.66.16.1.54,0,.36.37-.03.07-.38-.02-.58-.04-.05,0-.11-.04-.15-.07-1.94-1.27-3.34-3.01-4.39-5.05-.33-.63-.55-1.32-.82-1.98-.05.01-.1.03-.15.04.12.64.23,1.28.36,1.92.09.42.13.89.35,1.24.93,1.46,1.95,2.85,3.33,3.94.57.46,1.11.99,1.74,1.33,1.71.92,3.6,1.29,5.49,1.61.51.09,1.06-.04,1.68-.08h0ZM42.44,22.03c.19.13.34.33.48.32,1.27-.03,2.59.1,3.8-.21,2.12-.55,4.02-1.67,5.79-2.97,1.35-.99,2.8-1.77,4.5-1.98.15-.02.32.08.49.13-.12.14-.22.31-.37.42-.1.07-.25.06-.38.1-.63.2-1.3.31-1.87.62-1.17.65-2.28,1.4-3.41,2.11-1.93,1.23-3.96,2.18-6.3,2.31-.34.02-.68.08-1.07.13,2.36.89,3.79.8,6.08-.14,1.23-.5,2.52-.92,3.83-1.18,1.13-.22,2.03-.77,2.7-1.6.48-.6.73-1.38,1.06-2.09.27-.59,0-1.13-.27-1.61-.2-.36-.48-.6-1.04-.68-.95-.14-1.73.14-2.54.46-1.51.6-2.69,1.69-4.01,2.6-2.24,1.54-4.52,3.01-7.46,3.25h0ZM15.88,31.88c1.08,1.63,2.01,3.15,3.22,4.47,1.08,1.17,2.25,2.21,3.59,3.08.69.45,1.44.84,2.04,1.39.86.78,1.6,1.69,2.39,2.54,0-.27.04-.64-.02-1-.25-1.42-.42-2.87-.84-4.24-.31-1.02-.94-1.95-1.47-2.9-.25-.44-.57-.83-.9-1.21-.72-.83-1.4-1.67-1.69-2.76-.03-.11-.13-.2-.26-.4-.28.76-.52,1.41-.74,2.07-.03.09-.01.24.04.33.86,1.41,1.36,3.07,2.85,4.04.26.17.49.38.73.58,0,.06-.01.12-.02.19-.17.02-.38.11-.5.04-.34-.2-.65-.45-.94-.71-1.07-.98-1.67-2.26-2.32-3.51-.24-.46-.58-.89-.74-1.38-.3-.91-1.23-1.46-2.27-1.21.13.34.2.7.39.99.91,1.47,1.98,2.81,3.2,4.04.15.15.24.38.35.58-.05.04-.11.07-.16.11-.15-.07-.33-.11-.44-.22-1.52-1.64-3-3.31-3.95-5.43-.48.17-.94.34-1.54.55h0ZM28.53,13.48s.08.06.12.09c.52-.67,1.17-1.28,1.55-2.03,1.06-2.09,1.44-4.3.72-6.61-.36-1.16-.88-2.15-2.1-2.69-1.7-.76-3.52.18-3.77,2.04-.04.32-.21.62-.36,1.04,1.17,2.84,2.81,5.72,2.45,9.19.26-.18.44-.35.56-.55.56-.95.85-2,.83-3.07-.03-1.29-.26-2.57-.33-3.86-.07-1.23-.05-2.47-.02-3.7,0-.28.22-.55.34-.83.08.02.15.05.23.07,0,.19.06.4,0,.57-.43,1.45-.16,2.9,0,4.35.24,2.02.51,4.03-.22,6.01h0ZM4.67,62.76c-.03,1.22.5,2.02,1.25,2.66.66.57,1.38,1.11,2.13,1.54,1.03.58,2.2.74,3.33.46,1.06-.26,2.09-.72,3.09-1.18.54-.25,1-.68,1.49-1.03-.03-.05-.05-.1-.08-.15-.28.08-.57.16-.86.23-.27.07-.54.16-.82.17-1.02.04-1.87-.34-2.55-1.1-.53-.58-1.17-.9-1.98-.86-.52.02-1.04-.02-1.56-.06-.1,0-.2-.12-.3-.19.08-.11.13-.26.24-.33.12-.07.29-.08.43-.09,1.5-.07,2.91.03,3.91,1.43.52.73,1.89.87,2.52.4-.8-.17-1.56-.38-2.07-1.07-.46-.62-.96-1.21-1.4-1.84-.34-.48-.8-.69-1.35-.66-.75.04-1.49.15-2.23.25-.55.07-1.1.18-1.41-.48-.03-.06-.31-.07-.37-.01-.26.29-.51.59-.72.92-.1.16-.19.41-.14.57.28.83.65,1.61,1.5,2.01.59.28,1.17.59,1.79.77.69.2,1.42.25,2.12.42.28.07.52.29.78.45-.02.09-.05.17-.07.26-.33-.04-.66-.06-.99-.13-.41-.09-.81-.3-1.22-.33-1.68-.1-3-.81-3.96-2.18-.16-.23-.29-.47-.51-.84h0ZM27.45,44.82c.07.03.13.06.2.09.12-.23.2-.51.38-.68.56-.5,1.21-.9,1.73-1.44.48-.49.91-1.05,1.23-1.66.68-1.29.45-2.63.05-3.96-.21-.7-.36-1.43-.43-2.15-.11-1.13,0-2.3-.75-3.28-.22-.28-.44-.57-.62-.88-.62-1.06-2.08-1.76-3.19-1.58-.5.64-.39,1.25-.08,1.89.72,1.51,1.42,3.02,2.09,4.55.31.72.5,1.49.77,2.23.35.95.55,1.96.26,2.91-.32,1.1-.89,2.13-1.34,3.19-.11.25-.2.51-.3.77h0ZM27.53,62.43c.65-.4,1.29-.65,1.73-1.09,1.46-1.47,2.32-3.31,2.99-5.25.23-.66.54-1.29.7-1.96.49-2.06.97-4.12,1.78-6.09.04-.09.03-.2.04-.33-4.55,3.82-6.34,8.94-7.24,14.72h0ZM49.93,68.89c-.35-.89-.86-1.56-1.54-2.1-.07-.05-.15-.11-.23-.11-.55-.04-1.11-.09-1.66-.09-1.57-.01-2.92-.58-4.12-1.58-.33-.27-.77-.5-1.19-.55-1.99-.27-3.96-.05-5.89.47-.8.22-1.59.46-2.44.71,1.02,1.41,2.33,1.98,3.88,1.94,1.17-.03,2.35-.18,3.51-.32,1.44-.17,2.88-.29,4.3-.03,1.68.31,3.41.54,4.9,1.49.12.08.27.1.48.18h0ZM25.09,13.22s.07-.05.1-.07c-.01-.07,0-.15-.04-.2-.43-.63-.81-1.31-1.31-1.87-.83-.92-1.63-1.95-2.65-2.6-1.91-1.23-3.58-2.68-4.99-4.44-.41-.5-.77-1.04-1.15-1.56-.09.04-.13.05-.15.08-.03.04-.07.1-.08.15-.15.9-.48,1.78-.12,2.7.27.7.41,1.45.74,2.11.16.32.36.53.04.84.79.7,1.56,1.33,2.62,1.54,1.11.21,2.21.48,3.27.85,1.27.44,2.54.96,3.35,2.15.09.13.24.21.37.32h0ZM46.5,46.4c0,.23.06.44,0,.61-.47,1.5-.93,3.03-2.09,4.17-1.57,1.54-2.83,3.3-3.69,5.31-.37.85-.71,1.73-.71,2.81.13-.22.21-.33.27-.44.69-1.21,1.62-2.21,2.76-3.01,1.24-.86,2.52-1.66,3.74-2.55.54-.39,1-.91,1.44-1.43.97-1.14,1.03-3.4.23-4.36-.02.03-.04.06-.05.09-.02.05-.03.11-.03.17-.04,1.42-.56,2.65-1.61,3.61-.92.85-1.9,1.64-2.86,2.44-.15.12-.38.15-.57.23-.03-.05-.07-.1-.1-.14.15-.2.27-.44.45-.6.76-.69,1.56-1.36,2.33-2.05,1.29-1.16,1.87-2.61,1.68-4.34-.02-.15-.21-.35-.36-.4-.25-.09-.54-.08-.85-.12h0ZM25.48,29.21c-1.17-.09-2.35.38-3.03,1.21-.08.1-.1.32-.04.44.26.54.5,1.1.84,1.59.72,1.03,1.49,2.01,2.23,3.02.14.19.22.43.35.64.43.69.92,1.34,1.06,2.19.26,1.57.62,3.12.92,4.6.61-1.14,1.1-2.43.78-3.91-.53-2.43-1.59-4.65-2.67-6.86-.47-.95-.97-1.85-.44-2.93ZM26.23,14.16c.17-.74-.19-1.31-.51-1.89-.85-1.5-1.7-2.99-2.57-4.48-.21-.35-.48-.68-.74-1-.52-.65-1.05-1.28-1.58-1.92-.42-.51-.85-1.01-1.24-1.54-.55-.73-1.05-1.5-1.6-2.23-.09-.12-.33-.26-.44-.22-.6.24-1.21.48-1.76.82-.35.22-.36.56-.09.97,1.14,1.79,2.74,3.13,4.35,4.45.78.64,1.82.95,2.46,1.81.21.28.51.5.78.74.97.87,1.88,1.77,2.32,3.05.17.49.41.95.62,1.43h0ZM11.54,42.73c.04.2.05.27.08.33.32.72.61,1.47.99,2.16.34.62.66,1.33,1.19,1.74,1.17.9,2.4,1.73,3.81,2.26,1.21.45,2.36,1.03,3.53,1.58.56.26,1.09.59,1.63.89.04-.05.08-.09.12-.14-.45-.58-.89-1.16-1.36-1.73-.22-.26-.52-.44-.72-.71-1.59-2.13-3.96-3.2-6.14-4.52-1-.61-2.17-.91-3.13-1.86h0ZM25.18,14.59c.06-.07.12-.15.18-.22-.71-.73-1.36-1.55-2.15-2.17-1.26-.97-2.85-1.21-4.36-1.57-1.25-.3-2.46-.65-3.4-1.63-.24-.25-.64-.47-.97-.48-1-.04-1.97.15-2.94.87.49.41.9.86,1.4,1.15.9.53,1.81,1.14,2.8,1.4,1.43.38,2.94.48,4.41.69,1.36.2,2.72.38,3.88,1.22.37.27.77.49,1.16.73ZM10.39,11.89c.04.38,0,.67.11.89.87,1.74,2.02,3.17,4.09,3.52.94.16,1.87.4,2.82.49.86.09,1.75.1,2.61,0,.79-.09,1.56-.36,2.34-.55.74-.18,1.48-.37,2.23-.55-.36-.25-.72-.39-1.08-.45-1.41-.26-2.82-.31-4.27-.22-2.66.17-5.09-.56-7.26-2.12-.47-.34-.98-.62-1.59-1h0ZM11.9,56.8c-.4-.28-.75-.54-1.1-.79-.79-.54-1.56-1.11-2.37-1.61-.42-.26-.65-.1-.72.39-.04.3-.09.6-.13.9-.04.38.03.67.51.72.27.03.54.14.81.22,2.24.64,3.7,2.18,4.67,4.22.47.99,1.13,1.77,2.04,2.35.09.06.21.07.37.12-.35-.4-.78-.7-.94-1.11-.54-1.38-1.06-2.77-1.44-4.19-.54-2-1.59-3.67-2.99-5.15-.44-.46-.84-.54-1.35-.19-.37.26-.69.59-.97.84,1.12.75,2.19,1.48,3.26,2.2.36.24.53.55.35,1.1ZM46.34,32.92c-.64-1.63-2.3-3.76-3.84-4.93-1.78-1.35-4.82-2.62-5.74-2.37.25.22.5.42.73.64.48.46.98.92,1.43,1.41,1.08,1.17,1.86,2.59,3.18,3.55,1.27.93,2.51,1.86,4.24,1.69h0ZM26.63,12.67c0-.35.04-.54,0-.7-.2-.74-.39-1.49-.65-2.21-.48-1.34-.77-2.76-1.62-3.95-.16-.22-.2-.52-.29-.79-.25-.8-.43-1.64-1.11-2.21-.36-.3-.73-.59-1.12-.85-1.02-.67-2.12-1.14-3.5-1.18.2.37.32.67.51.91.96,1.22,1.94,2.43,2.93,3.62.44.53,1.03.97,1.39,1.55.84,1.35,1.59,2.76,2.39,4.13.31.53.66,1.03,1.08,1.69h0ZM51.32,14.48c-.26.09-.5.14-.7.26-.55.33-1.09.66-1.61,1.04-.88.64-1.8,1.24-2.58,1.98-1.24,1.18-2.38,2.48-3.53,3.69.04,0,.21.02.35-.03,1.09-.36,2.22-.66,3.27-1.14,1.02-.47,1.97-1.09,2.91-1.7,1.08-.71,2.08-1.58,3.2-2.22.95-.54,2.03-.86,3.15-1.32-.52,0-.97.04-1.42,0-1.06-.11-1.88.87-2.96.62-.04-.01-.1.04-.15.07-.76.44-1.53.86-2.26,1.34-.43.29-.92.58-.89,1.24-.22-.03-.38-.05-.67-.08.12-.25.17-.49.32-.64.93-.99,2.06-1.7,3.27-2.29.35-.17.43-.37.31-.81h0ZM16.08,64.26c0-.07.01-.15.02-.22-.05-.03-.1-.05-.14-.08-.8-.61-1.7-1.13-2.38-1.86-.54-.58-.81-1.42-1.23-2.13-.25-.42-.5-.85-.84-1.19-1.08-1.09-2.5-1.46-3.83-1.82-.29.92-.54,1.8-.85,2.66-.22.61-.09.96.52,1.01.4.04.82-.02,1.23-.04.66-.03,1.32-.14,1.97-.08.92.09,1.4.83,1.83,1.54.6.99,1.37,1.74,2.54,1.99.39.08.78.14,1.17.21h0ZM24.77,15c-1.02-.57-1.93-1.36-3.15-1.52-1.44-.2-2.87-.45-4.31-.62-1.89-.21-3.58-.81-4.99-2.14-.35-.33-.74-.6-1.13-.9-.15.17-.26.3-.36.43-.52.66-.48.92.18,1.43.19.15.41.27.6.42,2.29,1.71,4.86,2.48,7.71,2.39,1.1-.04,2.21-.03,3.31.05.72.06,1.43.3,2.14.46ZM42.21,20.88c.08.05.17.1.25.15.38-.33.79-.63,1.14-.99.9-.93,1.7-1.99,2.69-2.82,1.49-1.25,3.1-2.36,4.83-3.26-.49-.64-.66-.72-1.35-.31-.97.57-1.91,1.19-2.83,1.84-.25.18-.39.52-.58.79.03.06.06.12.09.18-.19-.06-.38-.13-.57-.19.07-.18.08-.42.21-.53,1.07-.98,2.21-1.86,3.52-2.5.11-.05.2-.13.38-.25-1.27-.27-2.25.22-3.1.87-1.73,1.32-3.06,3.01-4.08,4.91-.34.63-.4,1.41-.58,2.13h0ZM15.96,22.09c5.74-1.32,10.17.44,13.27,5.48-.05-.23-.09-.5-.22-.71-.7-1.15-1.33-2.34-2.15-3.4-.6-.78-1.4-1.42-2.17-2.04-1.41-1.13-3-1.77-4.84-1.57-1.61.17-2.66,1.33-3.87,2.24h0ZM51.44,51.41c-.33.72-.47,1.47-.92,1.94-1.01,1.06-1.74,2.41-3.07,3.13-1.12.6-2.28,1.14-3.47,1.61-.8.32-1.62.57-2.22,1.35.19.02.32.07.44.05,1.25-.2,2.55-.27,3.75-.66,2.4-.78,4.07-2.56,5.57-4.5.49-.63.87-1.34,1.36-2.12-.5-.27-1.02-.55-1.45-.78h0ZM16.72,62.93c-.12-.25-.21-.42-.28-.59-.55-1.38-1.07-2.82-.85-4.3.25-1.71.05-3.31-.58-4.89-.28-.7-.53-.86-1.22-.6-.15.06-.32.09-.48.12-.54.1-1.08.19-1.67.29.45.68,1,1.27,1.28,1.96.74,1.79,1.37,3.62,2.02,5.45.35.99.57,2.05,1.78,2.57h0ZM40.76,59.36c1.17-1.26,2.79-1.64,4.28-2.26,1.47-.61,2.86-1.38,3.84-2.71.23-.32.54-.58.79-.88.55-.65,1.01-1.34,1.06-2.29-.78.06-1.44.11-1.93.87-.44.68-1.07,1.27-1.73,1.76-1.41,1.05-2.92,1.98-4.34,3.01-.87.63-1.48,1.51-1.97,2.5ZM31.37,41.77c.24-.18.44-.32.63-.47.07-.06.13-.14.19-.21,1.2-1.37,1.5-3.05,1.62-4.77.07-.95-.07-1.91-.03-2.87.04-.99.07-1-.84-.62-.09.04-.19.05-.26.1-.53.43-1.12.82-1.54,1.35-.17.22.03.75.09,1.14.07.43.18.85.28,1.26.11.43.33.86.36,1.3.08,1.2.15,2.41-.47,3.52-.03.06-.02.14-.04.27h0ZM16.91,62.3c.07-.01.13-.02.2-.03.34-.79.67-1.57.67-2.49,0-.63.29-1.26.32-1.9.04-.78-.01-1.57-.09-2.35-.11-1.13-.31-2.24-1.35-2.97-.4-.28-.79-.43-1.27-.31.95,2.68,1.09,2.98.77,5.53-.07.55-.08,1.14.02,1.68.18.96.48,1.9.72,2.84h0ZM44.57,59.82c.02.05.05.11.07.16.11,0,.22.02.33,0,.13-.02.25-.08.38-.08,2.28-.08,4.33-1.02,6.34-1.92,1.05-.47,1.92-1.47,2.16-2.78.18-.94,0-1.75-.6-2.39-2.2,3.22-4.53,6.21-8.68,7.01h0ZM39.55,58.09c.35-1.51,1-2.88,1.89-4.13.61-.85,1.22-1.72,1.92-2.5.86-.95,1.62-1.94,2.05-3.15.21-.59.53-1.2.1-1.98-.39.11-.81.28-1.25.35-.39.07-.42.3-.49.61-.16.71-.27,1.46-.61,2.09-.78,1.46-1.66,2.86-2.53,4.26-.84,1.36-1.39,2.78-1.07,4.43ZM51.82,61.15c-.75.25-1.45.54-2.17.72-1.27.31-2.55.31-3.85.06-1.1-.21-2.22-.29-3.21-.41.34.16.78.36,1.22.55,1.27.56,2.44,1.37,3.86,1.53,1.22.14,2.45.25,3.67.35.11,0,.26-.08.33-.16.65-.82.69-1.74.15-2.65ZM50.91,64.69c-.81-.1-1.68-.21-2.55-.31-1.65-.18-3.12-.85-4.56-1.65-.81-.45-1.66-.8-2.71-.68.93,1.64,2.3,2.81,3.93,3.29,1.97.58,4.07.47,5.89-.65h0ZM30.93,43.15c2.26-1.22,3.96-2.91,4.83-5.35.52-1.46.43-2.85-.41-4.17-.27-.42-.59-.84-1.18-.97.46,4.02.33,7.78-3.25,10.48ZM45.6,25.62s0,.03,0,.04c.05.03.09.07.14.09,1.49.58,2.92,1.3,4.6,1.33,1.03.02,1.99-.05,2.91-.51.68-.34.95-.95,1.24-1.63-.86-.23-1.64-.21-2.43-.02-1.16.27-2.32.63-3.5.77-.97.12-1.97-.03-2.96-.06h0ZM43.34,23.57c.23.44.61.76,1.16.98,1.33.53,2.71.69,4.1.5,1.09-.15,2.15-.49,3.22-.77.73-.18,1.44-.44,2.18-.02.1.06.25.04.49.07-.17-.39-.25-.74-.45-.99-.23-.27-.6-.68-.84-.64-.86.13-1.71.38-2.53.68-1.35.5-2.68,1.01-4.15.79-1.07-.16-2.12-.4-3.17-.6h0ZM42.09,60.8c0,.05.01.11.02.16.5.02,1.01.01,1.51.07,1.4.16,2.8.37,4.2.5,1.37.13,2.56-.41,3.84-1.08-.41-.49-.77-.91-1.15-1.36-2.67,1.39-5.56,1.5-8.43,1.71h0ZM43.29,47.2c-2.42,1.23-4.76,5.85-4.28,8.2.35-.7.71-1.49,1.14-2.24.47-.81,1.01-1.58,1.52-2.37.71-1.09,1.37-2.21,1.62-3.59ZM40.56,63.2c-.18-.31-.48-.67-.62-1.09-.22-.64-.61-.65-1.12-.45-.5.2-.98.48-1.49.6-1.24.28-2.08,1.15-2.99,1.82,2.06-.29,4.13-.59,6.23-.88ZM40.98,60.64c.91-.21,1.66-.39,2.4-.56-.81-.09-1.6-.09-2.4.56Z"/></svg>